<mxfile host="app.diagrams.net" modified="2023-06-06T08:14:16.033Z" agent="Mozilla/5.0 (Windows NT 10.0; Win64; x64) AppleWebKit/537.36 (KHTML, like Gecko) Chrome/114.0.0.0 Safari/537.36" etag="vkq3a7KPxA1E1KAecMmk" version="21.3.7" type="github">
  <diagram name="Page-1" id="o5c3MyCCfT6Zi9pkK95U">
    <mxGraphModel dx="5050" dy="1964" grid="1" gridSize="10" guides="1" tooltips="1" connect="1" arrows="1" fold="1" page="1" pageScale="1" pageWidth="850" pageHeight="1100" math="0" shadow="0">
      <root>
        <mxCell id="0" />
        <mxCell id="1" parent="0" />
        <mxCell id="gdP-SerEr61cwoP4kA2t-89" value="Media" style="swimlane;childLayout=stackLayout;horizontal=1;startSize=50;horizontalStack=0;rounded=1;fontSize=14;fontStyle=0;strokeWidth=2;resizeParent=0;resizeLast=1;shadow=0;dashed=0;align=center;arcSize=4;whiteSpace=wrap;html=1;" vertex="1" parent="1">
          <mxGeometry x="-225" y="700" width="140" height="210" as="geometry" />
        </mxCell>
        <mxCell id="gdP-SerEr61cwoP4kA2t-90" value="+ Media UD&lt;br&gt;+ Media URL&lt;br&gt;+ Media format&lt;br&gt;+ Media name&lt;br&gt;+ Media thumbnails&lt;br&gt;+ Media created time&lt;br&gt;+ Media type&lt;br&gt;+ Media size&lt;br&gt;+ Media description" style="align=left;strokeColor=none;fillColor=none;spacingLeft=4;fontSize=12;verticalAlign=top;resizable=0;rotatable=0;part=1;html=1;" vertex="1" parent="gdP-SerEr61cwoP4kA2t-89">
          <mxGeometry y="50" width="140" height="160" as="geometry" />
        </mxCell>
        <mxCell id="gdP-SerEr61cwoP4kA2t-91" value="Role" style="swimlane;childLayout=stackLayout;horizontal=1;startSize=50;horizontalStack=0;rounded=1;fontSize=14;fontStyle=0;strokeWidth=2;resizeParent=0;resizeLast=1;shadow=0;dashed=0;align=center;arcSize=4;whiteSpace=wrap;html=1;" vertex="1" parent="1">
          <mxGeometry x="290" y="60" width="160" height="120" as="geometry" />
        </mxCell>
        <mxCell id="gdP-SerEr61cwoP4kA2t-92" value="+ Account ID&lt;br&gt;+ Role ID&lt;br&gt;+ Role name" style="align=left;strokeColor=none;fillColor=none;spacingLeft=4;fontSize=12;verticalAlign=top;resizable=0;rotatable=0;part=1;html=1;" vertex="1" parent="gdP-SerEr61cwoP4kA2t-91">
          <mxGeometry y="50" width="160" height="70" as="geometry" />
        </mxCell>
        <mxCell id="gdP-SerEr61cwoP4kA2t-93" value="Account Detail" style="swimlane;childLayout=stackLayout;horizontal=1;startSize=50;horizontalStack=0;rounded=1;fontSize=14;fontStyle=0;strokeWidth=2;resizeParent=0;resizeLast=1;shadow=0;dashed=0;align=center;arcSize=4;whiteSpace=wrap;html=1;" vertex="1" parent="1">
          <mxGeometry x="-800" y="360" width="140" height="180" as="geometry">
            <mxRectangle x="-40" y="30" width="90" height="50" as="alternateBounds" />
          </mxGeometry>
        </mxCell>
        <mxCell id="gdP-SerEr61cwoP4kA2t-94" value="+ Account ID&lt;br&gt;+ First Name&lt;br&gt;+ Last Name&lt;br&gt;+ Job&lt;br&gt;+ Phone number&lt;br&gt;+ Date of Birth&lt;br&gt;+ Gender&lt;br&gt;+ Media ID" style="align=left;strokeColor=none;fillColor=none;spacingLeft=4;fontSize=12;verticalAlign=top;resizable=0;rotatable=0;part=1;html=1;" vertex="1" parent="gdP-SerEr61cwoP4kA2t-93">
          <mxGeometry y="50" width="140" height="130" as="geometry" />
        </mxCell>
        <mxCell id="gdP-SerEr61cwoP4kA2t-95" value="Account" style="swimlane;childLayout=stackLayout;horizontal=1;startSize=50;horizontalStack=0;rounded=1;fontSize=14;fontStyle=0;strokeWidth=2;resizeParent=0;resizeLast=1;shadow=0;dashed=0;align=center;arcSize=4;whiteSpace=wrap;html=1;" vertex="1" parent="1">
          <mxGeometry x="-280" y="365" width="130" height="120" as="geometry" />
        </mxCell>
        <mxCell id="gdP-SerEr61cwoP4kA2t-96" value="+ Account ID&lt;br&gt;+ Password&lt;br&gt;+ Username&lt;br&gt;+ Display name" style="align=left;strokeColor=none;fillColor=none;spacingLeft=4;fontSize=12;verticalAlign=top;resizable=0;rotatable=0;part=1;html=1;" vertex="1" parent="gdP-SerEr61cwoP4kA2t-95">
          <mxGeometry y="50" width="130" height="70" as="geometry" />
        </mxCell>
        <mxCell id="gdP-SerEr61cwoP4kA2t-105" style="rounded=0;orthogonalLoop=1;jettySize=auto;html=1;entryX=0;entryY=0.5;entryDx=0;entryDy=0;endArrow=none;endFill=0;exitX=1;exitY=0.5;exitDx=0;exitDy=0;" edge="1" parent="1" source="gdP-SerEr61cwoP4kA2t-102" target="gdP-SerEr61cwoP4kA2t-91">
          <mxGeometry relative="1" as="geometry" />
        </mxCell>
        <mxCell id="gdP-SerEr61cwoP4kA2t-102" value="has" style="shape=rhombus;perimeter=rhombusPerimeter;whiteSpace=wrap;html=1;align=center;" vertex="1" parent="1">
          <mxGeometry x="5" y="95" width="110" height="50" as="geometry" />
        </mxCell>
        <mxCell id="gdP-SerEr61cwoP4kA2t-104" style="rounded=0;orthogonalLoop=1;jettySize=auto;html=1;entryX=0;entryY=0.5;entryDx=0;entryDy=0;endArrow=none;endFill=0;exitX=0.997;exitY=0.177;exitDx=0;exitDy=0;exitPerimeter=0;" edge="1" parent="1" source="gdP-SerEr61cwoP4kA2t-96" target="gdP-SerEr61cwoP4kA2t-102">
          <mxGeometry relative="1" as="geometry">
            <mxPoint x="-130" y="390" as="sourcePoint" />
          </mxGeometry>
        </mxCell>
        <mxCell id="gdP-SerEr61cwoP4kA2t-108" value="Media Detail" style="swimlane;childLayout=stackLayout;horizontal=1;startSize=50;horizontalStack=0;rounded=1;fontSize=14;fontStyle=0;strokeWidth=2;resizeParent=0;resizeLast=1;shadow=0;dashed=0;align=center;arcSize=4;whiteSpace=wrap;html=1;" vertex="1" parent="1">
          <mxGeometry x="290" y="700" width="160" height="140" as="geometry" />
        </mxCell>
        <mxCell id="gdP-SerEr61cwoP4kA2t-109" value="+ Media UD&lt;br&gt;+ Post ID&lt;br&gt;+ Post Account ID&lt;br&gt;+ Media created time&lt;br&gt;" style="align=left;strokeColor=none;fillColor=none;spacingLeft=4;fontSize=12;verticalAlign=top;resizable=0;rotatable=0;part=1;html=1;" vertex="1" parent="gdP-SerEr61cwoP4kA2t-108">
          <mxGeometry y="50" width="160" height="90" as="geometry" />
        </mxCell>
        <mxCell id="gdP-SerEr61cwoP4kA2t-110" value="Post" style="swimlane;childLayout=stackLayout;horizontal=1;startSize=50;horizontalStack=0;rounded=1;fontSize=14;fontStyle=0;strokeWidth=2;resizeParent=0;resizeLast=1;shadow=0;dashed=0;align=center;arcSize=4;whiteSpace=wrap;html=1;" vertex="1" parent="1">
          <mxGeometry x="861" y="370" width="140" height="150" as="geometry" />
        </mxCell>
        <mxCell id="gdP-SerEr61cwoP4kA2t-111" value="Account ID&lt;br&gt;Category ID&lt;br&gt;Post ID&lt;br&gt;Post date&lt;br&gt;Description" style="align=left;strokeColor=none;fillColor=none;spacingLeft=4;fontSize=12;verticalAlign=top;resizable=0;rotatable=0;part=1;html=1;" vertex="1" parent="gdP-SerEr61cwoP4kA2t-110">
          <mxGeometry y="50" width="140" height="100" as="geometry" />
        </mxCell>
        <mxCell id="gdP-SerEr61cwoP4kA2t-113" value="Share" style="swimlane;childLayout=stackLayout;horizontal=1;startSize=50;horizontalStack=0;rounded=1;fontSize=14;fontStyle=0;strokeWidth=2;resizeParent=0;resizeLast=1;shadow=0;dashed=0;align=center;arcSize=4;whiteSpace=wrap;html=1;" vertex="1" parent="1">
          <mxGeometry x="290" y="227.5" width="160" height="120" as="geometry" />
        </mxCell>
        <mxCell id="gdP-SerEr61cwoP4kA2t-114" value="Account ID&lt;br&gt;Post ID&lt;br&gt;Share ID&lt;br&gt;Share created time" style="align=left;strokeColor=none;fillColor=none;spacingLeft=4;fontSize=12;verticalAlign=top;resizable=0;rotatable=0;part=1;html=1;" vertex="1" parent="gdP-SerEr61cwoP4kA2t-113">
          <mxGeometry y="50" width="160" height="70" as="geometry" />
        </mxCell>
        <mxCell id="gdP-SerEr61cwoP4kA2t-115" value="Comments" style="swimlane;childLayout=stackLayout;horizontal=1;startSize=50;horizontalStack=0;rounded=1;fontSize=14;fontStyle=0;strokeWidth=2;resizeParent=0;resizeLast=1;shadow=0;dashed=0;align=center;arcSize=4;whiteSpace=wrap;html=1;" vertex="1" parent="1">
          <mxGeometry x="290" y="370" width="160" height="120" as="geometry" />
        </mxCell>
        <mxCell id="gdP-SerEr61cwoP4kA2t-116" value="+ Comment ID&lt;br&gt;+ Post ID&lt;br&gt;+ Account ID" style="align=left;strokeColor=none;fillColor=none;spacingLeft=4;fontSize=12;verticalAlign=top;resizable=0;rotatable=0;part=1;html=1;" vertex="1" parent="gdP-SerEr61cwoP4kA2t-115">
          <mxGeometry y="50" width="160" height="70" as="geometry" />
        </mxCell>
        <mxCell id="gdP-SerEr61cwoP4kA2t-117" value="Likes" style="swimlane;childLayout=stackLayout;horizontal=1;startSize=50;horizontalStack=0;rounded=1;fontSize=14;fontStyle=0;strokeWidth=2;resizeParent=0;resizeLast=1;shadow=0;dashed=0;align=center;arcSize=4;whiteSpace=wrap;html=1;" vertex="1" parent="1">
          <mxGeometry x="290" y="558.75" width="160" height="107.5" as="geometry" />
        </mxCell>
        <mxCell id="gdP-SerEr61cwoP4kA2t-118" value="Post ID&lt;br&gt;Account ID" style="align=left;strokeColor=none;fillColor=none;spacingLeft=4;fontSize=12;verticalAlign=top;resizable=0;rotatable=0;part=1;html=1;" vertex="1" parent="gdP-SerEr61cwoP4kA2t-117">
          <mxGeometry y="50" width="160" height="57.5" as="geometry" />
        </mxCell>
        <mxCell id="gdP-SerEr61cwoP4kA2t-122" value="CategoryToPost" style="swimlane;childLayout=stackLayout;horizontal=1;startSize=50;horizontalStack=0;rounded=1;fontSize=14;fontStyle=0;strokeWidth=2;resizeParent=0;resizeLast=1;shadow=0;dashed=0;align=center;arcSize=4;whiteSpace=wrap;html=1;" vertex="1" parent="1">
          <mxGeometry x="1230" y="337" width="160" height="120" as="geometry" />
        </mxCell>
        <mxCell id="gdP-SerEr61cwoP4kA2t-123" value="Post account ID&lt;br&gt;created_Time&lt;br&gt;Post ID&lt;br&gt;Category ID" style="align=left;strokeColor=none;fillColor=none;spacingLeft=4;fontSize=12;verticalAlign=top;resizable=0;rotatable=0;part=1;html=1;" vertex="1" parent="gdP-SerEr61cwoP4kA2t-122">
          <mxGeometry y="50" width="160" height="70" as="geometry" />
        </mxCell>
        <mxCell id="gdP-SerEr61cwoP4kA2t-124" value="Category" style="swimlane;childLayout=stackLayout;horizontal=1;startSize=50;horizontalStack=0;rounded=1;fontSize=14;fontStyle=0;strokeWidth=2;resizeParent=0;resizeLast=1;shadow=0;dashed=0;align=center;arcSize=4;whiteSpace=wrap;html=1;" vertex="1" parent="1">
          <mxGeometry x="1620" y="382.5" width="160" height="165" as="geometry" />
        </mxCell>
        <mxCell id="gdP-SerEr61cwoP4kA2t-125" value="Category ID&lt;br&gt;created_Time&lt;br&gt;Parent Category&lt;br&gt;Description&lt;br&gt;Category name" style="align=left;strokeColor=none;fillColor=none;spacingLeft=4;fontSize=12;verticalAlign=top;resizable=0;rotatable=0;part=1;html=1;" vertex="1" parent="gdP-SerEr61cwoP4kA2t-124">
          <mxGeometry y="50" width="160" height="115" as="geometry" />
        </mxCell>
        <mxCell id="gdP-SerEr61cwoP4kA2t-128" style="rounded=0;orthogonalLoop=1;jettySize=auto;html=1;entryX=0.994;entryY=0.109;entryDx=0;entryDy=0;entryPerimeter=0;endArrow=none;endFill=0;exitX=0;exitY=0.5;exitDx=0;exitDy=0;" edge="1" parent="1" source="gdP-SerEr61cwoP4kA2t-129" target="gdP-SerEr61cwoP4kA2t-94">
          <mxGeometry relative="1" as="geometry" />
        </mxCell>
        <mxCell id="gdP-SerEr61cwoP4kA2t-129" value="has" style="shape=rhombus;perimeter=rhombusPerimeter;whiteSpace=wrap;html=1;align=center;" vertex="1" parent="1">
          <mxGeometry x="-530" y="395" width="105" height="55" as="geometry" />
        </mxCell>
        <mxCell id="gdP-SerEr61cwoP4kA2t-130" style="rounded=0;orthogonalLoop=1;jettySize=auto;html=1;entryX=1;entryY=0.5;entryDx=0;entryDy=0;endArrow=none;endFill=0;exitX=0;exitY=0.5;exitDx=0;exitDy=0;" edge="1" parent="1" source="gdP-SerEr61cwoP4kA2t-95" target="gdP-SerEr61cwoP4kA2t-129">
          <mxGeometry relative="1" as="geometry">
            <mxPoint x="-140" y="110" as="sourcePoint" />
            <mxPoint x="-321" y="184" as="targetPoint" />
          </mxGeometry>
        </mxCell>
        <mxCell id="gdP-SerEr61cwoP4kA2t-133" style="rounded=0;orthogonalLoop=1;jettySize=auto;html=1;entryX=-0.001;entryY=0.094;entryDx=0;entryDy=0;endArrow=none;endFill=0;exitX=1;exitY=0.5;exitDx=0;exitDy=0;entryPerimeter=0;" edge="1" parent="1" source="gdP-SerEr61cwoP4kA2t-134" target="gdP-SerEr61cwoP4kA2t-90">
          <mxGeometry relative="1" as="geometry">
            <mxPoint x="-120" y="165" as="targetPoint" />
          </mxGeometry>
        </mxCell>
        <mxCell id="gdP-SerEr61cwoP4kA2t-134" value="has" style="shape=rhombus;perimeter=rhombusPerimeter;whiteSpace=wrap;html=1;align=center;" vertex="1" parent="1">
          <mxGeometry x="-540" y="500" width="110" height="50" as="geometry" />
        </mxCell>
        <mxCell id="gdP-SerEr61cwoP4kA2t-135" style="rounded=0;orthogonalLoop=1;jettySize=auto;html=1;entryX=0;entryY=0.5;entryDx=0;entryDy=0;endArrow=none;endFill=0;exitX=1;exitY=0.888;exitDx=0;exitDy=0;exitPerimeter=0;" edge="1" parent="1" target="gdP-SerEr61cwoP4kA2t-134" source="gdP-SerEr61cwoP4kA2t-94">
          <mxGeometry relative="1" as="geometry">
            <mxPoint x="-313" y="155" as="sourcePoint" />
          </mxGeometry>
        </mxCell>
        <mxCell id="gdP-SerEr61cwoP4kA2t-137" style="rounded=0;orthogonalLoop=1;jettySize=auto;html=1;entryX=-0.009;entryY=0.079;entryDx=0;entryDy=0;endArrow=none;endFill=0;exitX=1;exitY=0.5;exitDx=0;exitDy=0;entryPerimeter=0;" edge="1" parent="1" source="gdP-SerEr61cwoP4kA2t-138" target="gdP-SerEr61cwoP4kA2t-109">
          <mxGeometry relative="1" as="geometry">
            <mxPoint x="120" y="645" as="targetPoint" />
          </mxGeometry>
        </mxCell>
        <mxCell id="gdP-SerEr61cwoP4kA2t-138" value="has" style="shape=rhombus;perimeter=rhombusPerimeter;whiteSpace=wrap;html=1;align=center;" vertex="1" parent="1">
          <mxGeometry x="40" y="740" width="110" height="50" as="geometry" />
        </mxCell>
        <mxCell id="gdP-SerEr61cwoP4kA2t-139" style="rounded=0;orthogonalLoop=1;jettySize=auto;html=1;entryX=0;entryY=0.5;entryDx=0;entryDy=0;endArrow=none;endFill=0;exitX=0.999;exitY=0.081;exitDx=0;exitDy=0;exitPerimeter=0;" edge="1" parent="1" target="gdP-SerEr61cwoP4kA2t-138" source="gdP-SerEr61cwoP4kA2t-90">
          <mxGeometry relative="1" as="geometry">
            <mxPoint x="-170" y="560" as="sourcePoint" />
          </mxGeometry>
        </mxCell>
        <mxCell id="gdP-SerEr61cwoP4kA2t-146" style="rounded=0;orthogonalLoop=1;jettySize=auto;html=1;endArrow=none;endFill=0;exitX=0;exitY=0.5;exitDx=0;exitDy=0;entryX=0.997;entryY=0.161;entryDx=0;entryDy=0;entryPerimeter=0;" edge="1" parent="1" target="gdP-SerEr61cwoP4kA2t-96" source="gdP-SerEr61cwoP4kA2t-162">
          <mxGeometry relative="1" as="geometry">
            <mxPoint x="-100" y="140" as="sourcePoint" />
            <mxPoint x="-130" y="450" as="targetPoint" />
          </mxGeometry>
        </mxCell>
        <mxCell id="gdP-SerEr61cwoP4kA2t-148" style="rounded=0;orthogonalLoop=1;jettySize=auto;html=1;entryX=-0.006;entryY=0.429;entryDx=0;entryDy=0;endArrow=none;endFill=0;entryPerimeter=0;exitX=0.995;exitY=0.502;exitDx=0;exitDy=0;exitPerimeter=0;" edge="1" parent="1" source="gdP-SerEr61cwoP4kA2t-149" target="gdP-SerEr61cwoP4kA2t-118">
          <mxGeometry relative="1" as="geometry">
            <mxPoint x="215" y="110" as="targetPoint" />
            <mxPoint x="130" y="633" as="sourcePoint" />
          </mxGeometry>
        </mxCell>
        <mxCell id="gdP-SerEr61cwoP4kA2t-149" value="do" style="shape=rhombus;perimeter=rhombusPerimeter;whiteSpace=wrap;html=1;align=center;" vertex="1" parent="1">
          <mxGeometry x="9" y="608" width="110" height="50" as="geometry" />
        </mxCell>
        <mxCell id="gdP-SerEr61cwoP4kA2t-150" style="rounded=0;orthogonalLoop=1;jettySize=auto;html=1;entryX=0;entryY=0.5;entryDx=0;entryDy=0;endArrow=none;endFill=0;exitX=0.999;exitY=0.177;exitDx=0;exitDy=0;exitPerimeter=0;" edge="1" parent="1" target="gdP-SerEr61cwoP4kA2t-149" source="gdP-SerEr61cwoP4kA2t-96">
          <mxGeometry relative="1" as="geometry">
            <mxPoint x="-70" y="130" as="sourcePoint" />
          </mxGeometry>
        </mxCell>
        <mxCell id="gdP-SerEr61cwoP4kA2t-151" style="rounded=0;orthogonalLoop=1;jettySize=auto;html=1;endArrow=none;endFill=0;exitX=1;exitY=0.5;exitDx=0;exitDy=0;entryX=0.004;entryY=0.826;entryDx=0;entryDy=0;entryPerimeter=0;" edge="1" parent="1" source="gdP-SerEr61cwoP4kA2t-152" target="gdP-SerEr61cwoP4kA2t-123">
          <mxGeometry relative="1" as="geometry">
            <mxPoint x="1220" y="445" as="targetPoint" />
          </mxGeometry>
        </mxCell>
        <mxCell id="gdP-SerEr61cwoP4kA2t-152" value="has" style="shape=rhombus;perimeter=rhombusPerimeter;whiteSpace=wrap;html=1;align=center;" vertex="1" parent="1">
          <mxGeometry x="1030" y="420" width="110" height="50" as="geometry" />
        </mxCell>
        <mxCell id="gdP-SerEr61cwoP4kA2t-153" style="rounded=0;orthogonalLoop=1;jettySize=auto;html=1;entryX=0;entryY=0.5;entryDx=0;entryDy=0;endArrow=none;endFill=0;exitX=1;exitY=0.25;exitDx=0;exitDy=0;" edge="1" parent="1" target="gdP-SerEr61cwoP4kA2t-152" source="gdP-SerEr61cwoP4kA2t-111">
          <mxGeometry relative="1" as="geometry">
            <mxPoint x="267.5" y="280" as="sourcePoint" />
          </mxGeometry>
        </mxCell>
        <mxCell id="gdP-SerEr61cwoP4kA2t-155" style="rounded=0;orthogonalLoop=1;jettySize=auto;html=1;endArrow=none;endFill=0;exitX=1;exitY=0.5;exitDx=0;exitDy=0;entryX=-0.001;entryY=0.12;entryDx=0;entryDy=0;entryPerimeter=0;" edge="1" parent="1" source="gdP-SerEr61cwoP4kA2t-156" target="gdP-SerEr61cwoP4kA2t-125">
          <mxGeometry relative="1" as="geometry">
            <mxPoint x="1650" y="450" as="targetPoint" />
          </mxGeometry>
        </mxCell>
        <mxCell id="gdP-SerEr61cwoP4kA2t-156" value="has" style="shape=rhombus;perimeter=rhombusPerimeter;whiteSpace=wrap;html=1;align=center;" vertex="1" parent="1">
          <mxGeometry x="1450" y="421.5" width="110" height="50" as="geometry" />
        </mxCell>
        <mxCell id="gdP-SerEr61cwoP4kA2t-157" style="rounded=0;orthogonalLoop=1;jettySize=auto;html=1;endArrow=none;endFill=0;exitX=0.996;exitY=0.846;exitDx=0;exitDy=0;exitPerimeter=0;entryX=0;entryY=0.5;entryDx=0;entryDy=0;" edge="1" parent="1" target="gdP-SerEr61cwoP4kA2t-156" source="gdP-SerEr61cwoP4kA2t-123">
          <mxGeometry relative="1" as="geometry">
            <mxPoint x="700" y="260" as="sourcePoint" />
            <mxPoint x="1480" y="448" as="targetPoint" />
          </mxGeometry>
        </mxCell>
        <mxCell id="gdP-SerEr61cwoP4kA2t-158" style="rounded=0;orthogonalLoop=1;jettySize=auto;html=1;entryX=0;entryY=0.44;entryDx=0;entryDy=0;endArrow=none;endFill=0;exitX=1;exitY=0.5;exitDx=0;exitDy=0;entryPerimeter=0;" edge="1" parent="1" source="gdP-SerEr61cwoP4kA2t-159" target="gdP-SerEr61cwoP4kA2t-111">
          <mxGeometry relative="1" as="geometry">
            <mxPoint x="305" y="410" as="targetPoint" />
          </mxGeometry>
        </mxCell>
        <mxCell id="gdP-SerEr61cwoP4kA2t-159" value="has" style="shape=rhombus;perimeter=rhombusPerimeter;whiteSpace=wrap;html=1;align=center;" vertex="1" parent="1">
          <mxGeometry x="560" y="750" width="110" height="50" as="geometry" />
        </mxCell>
        <mxCell id="gdP-SerEr61cwoP4kA2t-160" style="rounded=0;orthogonalLoop=1;jettySize=auto;html=1;entryX=0;entryY=0.5;entryDx=0;entryDy=0;endArrow=none;endFill=0;exitX=0.999;exitY=0.172;exitDx=0;exitDy=0;exitPerimeter=0;" edge="1" parent="1" target="gdP-SerEr61cwoP4kA2t-159" source="gdP-SerEr61cwoP4kA2t-109">
          <mxGeometry relative="1" as="geometry">
            <mxPoint x="20" y="430" as="sourcePoint" />
          </mxGeometry>
        </mxCell>
        <mxCell id="gdP-SerEr61cwoP4kA2t-161" style="rounded=0;orthogonalLoop=1;jettySize=auto;html=1;entryX=0.002;entryY=0.204;entryDx=0;entryDy=0;endArrow=none;endFill=0;entryPerimeter=0;exitX=1;exitY=0.5;exitDx=0;exitDy=0;" edge="1" parent="1" source="gdP-SerEr61cwoP4kA2t-162" target="gdP-SerEr61cwoP4kA2t-114">
          <mxGeometry relative="1" as="geometry">
            <mxPoint x="-350" y="-40" as="targetPoint" />
            <mxPoint x="120" y="292" as="sourcePoint" />
          </mxGeometry>
        </mxCell>
        <mxCell id="gdP-SerEr61cwoP4kA2t-162" value="do" style="shape=rhombus;perimeter=rhombusPerimeter;whiteSpace=wrap;html=1;align=center;" vertex="1" parent="1">
          <mxGeometry x="10" y="267" width="110" height="50" as="geometry" />
        </mxCell>
        <mxCell id="gdP-SerEr61cwoP4kA2t-164" style="rounded=0;orthogonalLoop=1;jettySize=auto;html=1;endArrow=none;endFill=0;exitX=1;exitY=0.5;exitDx=0;exitDy=0;entryX=0.002;entryY=0.435;entryDx=0;entryDy=0;entryPerimeter=0;" edge="1" parent="1" source="gdP-SerEr61cwoP4kA2t-165" target="gdP-SerEr61cwoP4kA2t-111">
          <mxGeometry relative="1" as="geometry">
            <mxPoint x="120" y="350" as="targetPoint" />
          </mxGeometry>
        </mxCell>
        <mxCell id="gdP-SerEr61cwoP4kA2t-165" value="has" style="shape=rhombus;perimeter=rhombusPerimeter;whiteSpace=wrap;html=1;align=center;" vertex="1" parent="1">
          <mxGeometry x="560" y="281" width="110" height="50" as="geometry" />
        </mxCell>
        <mxCell id="gdP-SerEr61cwoP4kA2t-166" style="rounded=0;orthogonalLoop=1;jettySize=auto;html=1;endArrow=none;endFill=0;exitX=1;exitY=0.404;exitDx=0;exitDy=0;exitPerimeter=0;entryX=0;entryY=0.5;entryDx=0;entryDy=0;" edge="1" parent="1" target="gdP-SerEr61cwoP4kA2t-165" source="gdP-SerEr61cwoP4kA2t-114">
          <mxGeometry relative="1" as="geometry">
            <mxPoint x="460" y="310" as="sourcePoint" />
            <mxPoint x="540" y="306" as="targetPoint" />
          </mxGeometry>
        </mxCell>
        <mxCell id="gdP-SerEr61cwoP4kA2t-170" style="rounded=0;orthogonalLoop=1;jettySize=auto;html=1;endArrow=none;endFill=0;exitX=1;exitY=0.5;exitDx=0;exitDy=0;entryX=0;entryY=0.435;entryDx=0;entryDy=0;entryPerimeter=0;" edge="1" parent="1" source="gdP-SerEr61cwoP4kA2t-171" target="gdP-SerEr61cwoP4kA2t-111">
          <mxGeometry relative="1" as="geometry">
            <mxPoint x="90" y="210" as="targetPoint" />
          </mxGeometry>
        </mxCell>
        <mxCell id="gdP-SerEr61cwoP4kA2t-171" value="has" style="shape=rhombus;perimeter=rhombusPerimeter;whiteSpace=wrap;html=1;align=center;" vertex="1" parent="1">
          <mxGeometry x="560" y="425" width="110" height="50" as="geometry" />
        </mxCell>
        <mxCell id="gdP-SerEr61cwoP4kA2t-172" style="rounded=0;orthogonalLoop=1;jettySize=auto;html=1;entryX=0;entryY=0.5;entryDx=0;entryDy=0;endArrow=none;endFill=0;exitX=1;exitY=0.416;exitDx=0;exitDy=0;exitPerimeter=0;" edge="1" parent="1" target="gdP-SerEr61cwoP4kA2t-171" source="gdP-SerEr61cwoP4kA2t-116">
          <mxGeometry relative="1" as="geometry">
            <mxPoint x="90" y="-200" as="sourcePoint" />
          </mxGeometry>
        </mxCell>
        <mxCell id="gdP-SerEr61cwoP4kA2t-174" style="rounded=0;orthogonalLoop=1;jettySize=auto;html=1;entryX=0.001;entryY=0.445;entryDx=0;entryDy=0;endArrow=none;endFill=0;exitX=1;exitY=0.5;exitDx=0;exitDy=0;entryPerimeter=0;" edge="1" parent="1" source="gdP-SerEr61cwoP4kA2t-175" target="gdP-SerEr61cwoP4kA2t-111">
          <mxGeometry relative="1" as="geometry">
            <mxPoint x="760" y="357.5" as="targetPoint" />
          </mxGeometry>
        </mxCell>
        <mxCell id="gdP-SerEr61cwoP4kA2t-175" value="has" style="shape=rhombus;perimeter=rhombusPerimeter;whiteSpace=wrap;html=1;align=center;" vertex="1" parent="1">
          <mxGeometry x="560" y="587.5" width="110" height="50" as="geometry" />
        </mxCell>
        <mxCell id="gdP-SerEr61cwoP4kA2t-176" style="rounded=0;orthogonalLoop=1;jettySize=auto;html=1;entryX=0;entryY=0.5;entryDx=0;entryDy=0;endArrow=none;endFill=0;exitX=0.995;exitY=0.167;exitDx=0;exitDy=0;exitPerimeter=0;" edge="1" parent="1" target="gdP-SerEr61cwoP4kA2t-175" source="gdP-SerEr61cwoP4kA2t-118">
          <mxGeometry relative="1" as="geometry">
            <mxPoint x="535" y="280" as="sourcePoint" />
          </mxGeometry>
        </mxCell>
        <mxCell id="gdP-SerEr61cwoP4kA2t-178" style="rounded=0;orthogonalLoop=1;jettySize=auto;html=1;entryX=-0.001;entryY=0.629;entryDx=0;entryDy=0;endArrow=none;endFill=0;exitX=1;exitY=0.5;exitDx=0;exitDy=0;entryPerimeter=0;" edge="1" parent="1" source="gdP-SerEr61cwoP4kA2t-179" target="gdP-SerEr61cwoP4kA2t-116">
          <mxGeometry relative="1" as="geometry">
            <mxPoint x="190" y="430" as="targetPoint" />
          </mxGeometry>
        </mxCell>
        <mxCell id="gdP-SerEr61cwoP4kA2t-179" value="do" style="shape=rhombus;perimeter=rhombusPerimeter;whiteSpace=wrap;html=1;align=center;" vertex="1" parent="1">
          <mxGeometry x="5" y="440" width="110" height="50" as="geometry" />
        </mxCell>
        <mxCell id="gdP-SerEr61cwoP4kA2t-180" style="rounded=0;orthogonalLoop=1;jettySize=auto;html=1;entryX=0;entryY=0.5;entryDx=0;entryDy=0;endArrow=none;endFill=0;exitX=0.996;exitY=0.17;exitDx=0;exitDy=0;exitPerimeter=0;" edge="1" parent="1" target="gdP-SerEr61cwoP4kA2t-179" source="gdP-SerEr61cwoP4kA2t-96">
          <mxGeometry relative="1" as="geometry">
            <mxPoint x="-130" y="450" as="sourcePoint" />
          </mxGeometry>
        </mxCell>
      </root>
    </mxGraphModel>
  </diagram>
</mxfile>
